name ./resultDataOpenSim/trcMotMarkerGrf/sub10/grf-12-07.mot
datacolumns 19
datarows 25
range 1.50800000 1.60400000
endheader

                time	     ground_force_vx	     ground_force_vy	     ground_force_vz	     ground_force_px	     ground_force_py	     ground_force_pz	   l_ground_force_vx	   l_ground_force_vy	   l_ground_force_vz	   l_ground_force_px	   l_ground_force_py	   l_ground_force_pz	     ground_torque_x	     ground_torque_y	     ground_torque_z	   l_ground_torque_x	   l_ground_torque_y	   l_ground_torque_z	
          1.50800000	          4.88517676	        473.73766358	        -20.74735496	          0.83551413	          0.00000000	          0.09196012	          0.00000000	          0.00000000	          0.00000000	          0.00000000	          0.00000000	          0.00000000	          0.00000000	          3.60038285	          0.00000000	          0.00000000	          0.00000000	          0.00000000	
          1.51200000	          6.21904766	        483.20431327	        -21.11213712	          0.83526036	          0.00000000	          0.09197219	          0.00000000	          0.00000000	          0.00000000	          0.00000000	          0.00000000	          0.00000000	          0.00000000	          3.83985987	          0.00000000	          0.00000000	          0.00000000	          0.00000000	
          1.51600000	          8.41786454	        492.98120429	        -21.84691335	          0.83495694	          0.00000000	          0.09197905	          0.00000000	          0.00000000	          0.00000000	          0.00000000	          0.00000000	          0.00000000	          0.00000000	          4.07623153	          0.00000000	          0.00000000	          0.00000000	          0.00000000	
          1.52000000	         11.53742403	        502.92867844	        -22.85335230	          0.83460947	          0.00000000	          0.09198426	          0.00000000	          0.00000000	          0.00000000	          0.00000000	          0.00000000	          0.00000000	          0.00000000	          4.30084730	          0.00000000	          0.00000000	          0.00000000	          0.00000000	
          1.52400000	         15.37534036	        512.94237183	        -23.99517410	          0.83425580	          0.00000000	          0.09198397	          0.00000000	          0.00000000	          0.00000000	          0.00000000	          0.00000000	          0.00000000	          0.00000000	          4.51026233	          0.00000000	          0.00000000	          0.00000000	          0.00000000	
          1.52800000	         19.53650854	        522.95908984	        -25.12642805	          0.83397062	          0.00000000	          0.09197066	          0.00000000	          0.00000000	          0.00000000	          0.00000000	          0.00000000	          0.00000000	          0.00000000	          4.70610273	          0.00000000	          0.00000000	          0.00000000	          0.00000000	
          1.53200000	         23.55195614	        532.94383223	        -26.12068570	          0.83382298	          0.00000000	          0.09193810	          0.00000000	          0.00000000	          0.00000000	          0.00000000	          0.00000000	          0.00000000	          0.00000000	          4.89334854	          0.00000000	          0.00000000	          0.00000000	          0.00000000	
          1.53600000	         27.01637952	        542.85970034	        -26.89398447	          0.83386318	          0.00000000	          0.09188505	          0.00000000	          0.00000000	          0.00000000	          0.00000000	          0.00000000	          0.00000000	          0.00000000	          5.07761078	          0.00000000	          0.00000000	          0.00000000	          0.00000000	
          1.54000000	         29.69545705	        552.64140568	        -27.41853314	          0.83411431	          0.00000000	          0.09181465	          0.00000000	          0.00000000	          0.00000000	          0.00000000	          0.00000000	          0.00000000	          0.00000000	          5.26240750	          0.00000000	          0.00000000	          0.00000000	          0.00000000	
          1.54400000	         31.57056458	        562.19762490	        -27.72514530	          0.83457499	          0.00000000	          0.09173310	          0.00000000	          0.00000000	          0.00000000	          0.00000000	          0.00000000	          0.00000000	          0.00000000	          5.44751080	          0.00000000	          0.00000000	          0.00000000	          0.00000000	
          1.54800000	         32.82654330	        571.44855627	        -27.89460780	          0.83522784	          0.00000000	          0.09164923	          0.00000000	          0.00000000	          0.00000000	          0.00000000	          0.00000000	          0.00000000	          0.00000000	          5.62900368	          0.00000000	          0.00000000	          0.00000000	          0.00000000	
          1.55200000	         33.79754834	        580.36977772	        -28.04056728	          0.83604252	          0.00000000	          0.09156850	          0.00000000	          0.00000000	          0.00000000	          0.00000000	          0.00000000	          0.00000000	          0.00000000	          5.80090996	          0.00000000	          0.00000000	          0.00000000	          0.00000000	
          1.55600000	         34.87662965	        589.00240329	        -28.28841921	          0.83697562	          0.00000000	          0.09148950	          0.00000000	          0.00000000	          0.00000000	          0.00000000	          0.00000000	          0.00000000	          0.00000000	          5.95756123	          0.00000000	          0.00000000	          0.00000000	          0.00000000	
          1.56000000	         36.40624328	        597.42806182	        -28.75557719	          0.83798206	          0.00000000	          0.09140733	          0.00000000	          0.00000000	          0.00000000	          0.00000000	          0.00000000	          0.00000000	          0.00000000	          6.09563654	          0.00000000	          0.00000000	          0.00000000	          0.00000000	
          1.56400000	         38.58307096	        605.74270503	        -29.53550993	          0.83902537	          0.00000000	          0.09131706	          0.00000000	          0.00000000	          0.00000000	          0.00000000	          0.00000000	          0.00000000	          0.00000000	          6.21510080	          0.00000000	          0.00000000	          0.00000000	          0.00000000	
          1.56800000	         41.40901016	        614.04748545	        -30.68377042	          0.84008183	          0.00000000	          0.09121333	          0.00000000	          0.00000000	          0.00000000	          0.00000000	          0.00000000	          0.00000000	          0.00000000	          6.31882268	          0.00000000	          0.00000000	          0.00000000	          0.00000000	
          1.57200000	         44.70107687	        622.44100029	        -32.20469571	          0.84115405	          0.00000000	          0.09108988	          0.00000000	          0.00000000	          0.00000000	          0.00000000	          0.00000000	          0.00000000	          0.00000000	          6.41114792	          0.00000000	          0.00000000	          0.00000000	          0.00000000	
          1.57600000	         48.15267601	        631.00411549	        -34.04499224	          0.84226465	          0.00000000	          0.09094463	          0.00000000	          0.00000000	          0.00000000	          0.00000000	          0.00000000	          0.00000000	          0.00000000	          6.49593778	          0.00000000	          0.00000000	          0.00000000	          0.00000000	
          1.58000000	         51.42879012	        639.79669678	        -36.10241358	          0.84343176	          0.00000000	          0.09078100	          0.00000000	          0.00000000	          0.00000000	          0.00000000	          0.00000000	          0.00000000	          0.00000000	          6.57459644	          0.00000000	          0.00000000	          0.00000000	          0.00000000	
          1.58400000	         54.26615174	        648.87235921	        -38.24611700	          0.84467346	          0.00000000	          0.09059978	          0.00000000	          0.00000000	          0.00000000	          0.00000000	          0.00000000	          0.00000000	          0.00000000	          6.64459829	          0.00000000	          0.00000000	          0.00000000	          0.00000000	
          1.58800000	         56.54460188	        658.28408638	        -40.34035821	          0.84599469	          0.00000000	          0.09039191	          0.00000000	          0.00000000	          0.00000000	          0.00000000	          0.00000000	          0.00000000	          0.00000000	          6.69907874	          0.00000000	          0.00000000	          0.00000000	          0.00000000	
          1.59200000	         58.31155111	        668.06694156	        -42.26824542	          0.84736878	          0.00000000	          0.09014881	          0.00000000	          0.00000000	          0.00000000	          0.00000000	          0.00000000	          0.00000000	          0.00000000	          6.72803751	          0.00000000	          0.00000000	          0.00000000	          0.00000000	
          1.59600000	         59.76352965	        678.22067392	        -43.95188555	          0.84876519	          0.00000000	          0.08986705	          0.00000000	          0.00000000	          0.00000000	          0.00000000	          0.00000000	          0.00000000	          0.00000000	          6.72136257	          0.00000000	          0.00000000	          0.00000000	          0.00000000	
          1.60000000	         61.19659782	        688.70337515	        -45.36264419	          0.85013854	          0.00000000	          0.08954412	          0.00000000	          0.00000000	          0.00000000	          0.00000000	          0.00000000	          0.00000000	          0.00000000	          6.67314462	          0.00000000	          0.00000000	          0.00000000	          0.00000000	
          1.60400000	         62.93275671	        699.42707288	        -46.51190312	          0.85143304	          0.00000000	          0.08917401	          0.00000000	          0.00000000	          0.00000000	          0.00000000	          0.00000000	          0.00000000	          0.00000000	          6.58591577	          0.00000000	          0.00000000	          0.00000000	          0.00000000	
